<?xml version="1.0" standalone="no"?>
<!DOCTYPE svg PUBLIC "-//W3C//DTD SVG 20010904//EN"
 "http://www.w3.org/TR/2001/REC-SVG-20010904/DTD/svg10.dtd">
<svg version="1.0" xmlns="http://www.w3.org/2000/svg"
 width="512.000000pt" height="512.000000pt" viewBox="0 0 512.000000 512.000000"
 preserveAspectRatio="xMidYMid meet">

<g transform="translate(0.000000,512.000000) scale(0.100000,-0.100000)"
fill="#000000" stroke="none">
<path d="M2270 4389 c0 -6 66 -79 148 -163 210 -217 251 -295 260 -492 2 -63
0 -133 -7 -162 -45 -212 -203 -438 -479 -687 -66 -60 -119 -111 -117 -113 2
-2 38 17 80 43 89 54 361 191 455 230 255 105 348 140 520 198 405 136 788
238 1133 301 71 13 131 27 134 29 3 3 -10 27 -28 54 -163 241 -425 399 -839
503 -109 28 -301 63 -590 109 -260 42 -427 71 -495 87 -72 17 -139 46 -150 64
-8 13 -25 13 -25 -1z m242 -123 l57 -16 31 -95 c38 -120 38 -130 -2 -69 -18
27 -69 86 -114 131 -63 62 -76 79 -56 73 15 -5 53 -16 84 -24z m243 -52 c184
-34 177 -31 125 -61 -53 -31 -150 -104 -169 -127 -16 -19 -31 -21 -31 -3 -1
10 -49 140 -75 200 -9 22 -15 22 150 -9z m225 -91 c7 -27 15 -87 17 -135 5
-72 3 -88 -8 -88 -8 0 -68 16 -133 35 -66 19 -122 35 -125 35 -3 0 11 16 30
36 37 39 189 164 200 164 4 0 12 -21 19 -47z m217 12 c103 -20 189 -38 191
-40 2 -2 -49 -31 -114 -64 -66 -33 -144 -75 -174 -95 l-55 -35 -7 82 c-3 45
-14 102 -22 126 -17 45 -19 61 -11 61 2 0 89 -16 192 -35z m234 -122 c-13 -51
-59 -156 -96 -219 l-24 -41 -111 54 c-110 55 -110 55 -88 72 81 63 322 203
327 190 1 -6 -2 -31 -8 -56z m240 6 c68 -23 151 -54 184 -68 l60 -27 -95 -24
c-109 -27 -264 -75 -364 -114 -60 -23 -68 -24 -62 -8 3 9 19 57 36 105 17 49
34 111 37 139 l6 50 37 -6 c21 -3 93 -24 161 -47z m-813 -161 l93 -29 -48 -42
c-26 -23 -78 -71 -115 -106 l-68 -64 0 89 c0 49 -3 113 -7 142 l-6 53 29 -7
c16 -3 71 -20 122 -36z m1049 -20 c-20 -29 -94 -126 -165 -216 l-130 -162 -36
48 c-19 27 -69 81 -111 120 l-75 72 38 16 c160 68 502 187 511 178 2 -2 -12
-28 -32 -56z m225 -46 c83 -59 228 -188 228 -203 0 -5 -18 -9 -39 -9 -93 0
-559 -78 -636 -106 -11 -4 19 34 67 84 88 91 152 180 202 280 l27 53 37 -22
c20 -12 72 -47 114 -77z m-992 -48 c102 -52 100 -48 33 -82 -33 -17 -99 -53
-146 -80 -48 -28 -87 -49 -87 -48 0 2 13 33 30 69 16 36 37 93 46 126 20 70
17 70 124 15z m-181 -35 c-19 -58 -75 -184 -98 -218 -7 -11 -18 -7 -54 20 -25
19 -53 39 -63 45 -17 10 -14 16 35 60 75 68 194 164 198 160 2 -1 -6 -32 -18
-67z m419 -108 c69 -47 182 -140 182 -150 0 -4 -66 -27 -147 -51 -82 -24 -211
-65 -288 -92 l-140 -49 91 93 c99 101 177 193 213 251 12 20 25 37 27 37 3 0
31 -17 62 -39z m-241 -103 c-47 -62 -111 -144 -143 -183 l-58 -70 -13 63 c-7
34 -20 76 -28 93 -9 17 -15 32 -13 33 40 29 331 186 336 181 2 -2 -34 -55 -81
-117z m-362 -66 c0 -6 -39 -40 -87 -76 l-87 -66 38 79 c21 44 41 89 44 101 l6
23 43 -26 c24 -14 43 -30 43 -35z m89 -100 c14 -27 26 -61 28 -77 3 -27 -1
-29 -147 -90 -82 -34 -170 -72 -193 -84 -24 -12 -46 -21 -47 -19 -2 2 31 31
74 65 42 34 117 104 167 156 49 53 90 96 91 96 2 1 14 -21 27 -47z m-174 -58
c-70 -70 -176 -157 -245 -200 -24 -15 -16 -3 34 58 46 56 92 97 165 147 55 39
105 70 111 71 5 0 -24 -34 -65 -76z"/>
<path d="M1480 1970 c-11 -11 -20 -33 -20 -50 0 -20 -5 -30 -15 -30 -8 0 -15
-7 -15 -15 0 -8 7 -15 15 -15 12 0 15 -17 15 -90 0 -72 3 -90 15 -90 11 0 15
19 17 88 3 82 4 87 26 90 31 5 29 32 -3 32 -16 0 -25 6 -25 16 0 27 20 54 40
54 11 0 20 7 20 15 0 22 -46 19 -70 -5z"/>
<path d="M405 1970 c-4 -7 -3 -16 3 -22 14 -14 45 -2 40 15 -6 16 -34 21 -43
7z"/>
<path d="M3218 1968 c6 -7 12 -26 15 -43 4 -28 4 -27 6 7 0 20 7 39 14 41 6 3
-1 6 -17 6 -22 1 -26 -2 -18 -11z"/>
<path d="M3277 1974 c-4 -4 -6 -23 -6 -43 1 -36 1 -36 8 -6 l6 30 14 -34 14
-33 16 28 15 29 7 -25 c6 -22 7 -20 8 12 1 48 -14 57 -29 15 l-11 -32 -18 33
c-9 18 -20 30 -24 26z"/>
<path d="M50 1826 c0 -122 2 -146 15 -146 12 0 15 22 17 113 l3 112 50 -113
c27 -61 54 -111 60 -109 5 2 29 48 53 103 24 54 47 102 50 106 4 4 5 -42 4
-102 -4 -106 -3 -110 17 -110 20 0 21 5 21 146 0 144 0 145 -22 142 -17 -2
-33 -27 -74 -115 l-51 -113 -50 113 c-39 88 -54 113 -71 115 -22 3 -22 2 -22
-142z"/>
<path d="M1597 1933 c-4 -3 -7 -15 -7 -25 0 -10 -7 -18 -15 -18 -8 0 -15 -7
-15 -15 0 -8 6 -15 14 -15 10 0 15 -20 18 -80 3 -87 11 -100 61 -100 33 0 37
27 5 32 -21 3 -23 9 -26 76 -3 71 -3 72 23 72 16 0 25 6 25 15 0 9 -9 15 -25
15 -20 0 -25 5 -25 25 0 24 -18 34 -33 18z"/>
<path d="M1748 1923 c6 -2 18 -2 25 0 6 3 1 5 -13 5 -14 0 -19 -2 -12 -5z"/>
<path d="M1710 1899 c-15 -26 -5 -65 17 -73 15 -6 14 -4 -2 14 -16 18 -17 26
-8 51 13 34 9 38 -7 8z"/>
<path d="M1802 1893 c10 -28 9 -35 -7 -55 l-20 -23 23 19 c26 22 28 44 7 72
-13 17 -13 16 -3 -13z"/>
<path d="M1741 1873 c0 -29 2 -33 8 -18 7 18 8 18 18 1 8 -14 10 -11 11 18 1
30 -2 36 -18 36 -17 0 -20 -7 -19 -37z m29 17 c0 -5 -4 -10 -10 -10 -5 0 -10
5 -10 10 0 6 5 10 10 10 6 0 10 -4 10 -10z"/>
<path d="M538 1875 c-55 -30 -61 -135 -11 -175 32 -25 106 -25 111 0 2 12 -5
15 -35 12 -48 -5 -75 21 -75 73 0 52 27 78 74 73 31 -3 38 0 38 14 0 14 -8 18
-37 18 -21 -1 -50 -7 -65 -15z"/>
<path d="M690 1785 c0 -82 3 -105 14 -105 9 0 15 21 19 71 6 77 27 114 59 106
13 -4 18 1 18 14 0 23 -27 25 -58 3 -20 -14 -22 -14 -22 0 0 9 -7 16 -15 16
-12 0 -15 -18 -15 -105z"/>
<path d="M848 1867 c-32 -30 -43 -77 -28 -122 23 -71 107 -89 161 -36 39 40
42 114 4 155 -33 35 -100 37 -137 3z m116 -29 c38 -53 9 -128 -49 -128 -40 0
-65 29 -65 75 0 46 25 75 65 75 24 0 39 -7 49 -22z"/>
<path d="M1072 1874 c-38 -26 -27 -73 23 -101 56 -31 55 -58 -3 -57 -34 1 -42
-2 -40 -15 2 -11 16 -17 44 -19 50 -4 74 16 74 59 0 23 -7 34 -31 47 -54 30
-60 37 -53 56 5 13 15 17 40 14 28 -3 34 -1 34 14 0 23 -56 25 -88 2z"/>
<path d="M1254 1878 c-29 -13 -44 -49 -44 -102 0 -60 36 -96 94 -96 52 0 81
20 96 66 15 46 0 106 -33 129 -24 17 -81 19 -113 3z m98 -35 c23 -21 24 -89 1
-115 -39 -44 -113 -7 -113 57 0 63 67 99 112 58z"/>
<path d="M410 1785 c0 -69 3 -85 15 -85 12 0 15 16 15 85 0 69 -3 85 -15 85
-12 0 -15 -16 -15 -85z"/>
<path d="M203 1600 c-51 -11 -96 -33 -124 -63 -50 -52 -73 -149 -49 -211 17
-45 83 -108 180 -171 52 -34 105 -73 117 -86 49 -54 51 -112 5 -162 -54 -57
-139 -59 -250 -7 l-62 29 0 -59 0 -59 57 -17 c84 -25 196 -23 258 5 92 41 128
92 129 186 1 48 -4 69 -26 105 -28 48 -45 62 -178 151 -139 91 -166 141 -120
217 43 70 145 80 273 27 15 -6 17 -1 17 44 0 45 -3 53 -24 61 -37 14 -157 20
-203 10z"/>
<path d="M850 1599 c-118 -20 -217 -95 -266 -203 -59 -129 -50 -331 20 -451
52 -88 142 -144 274 -170 24 -5 53 -30 114 -96 l83 -89 70 0 70 0 -95 95 c-52
52 -92 96 -89 98 2 2 29 15 60 29 75 34 124 86 168 177 32 69 36 86 39 177 6
163 -25 261 -108 345 -76 76 -209 111 -340 88z m207 -107 c98 -51 149 -169
141 -326 -10 -193 -107 -297 -279 -298 -119 -1 -214 71 -254 193 -27 79 -18
237 18 305 30 58 100 126 149 142 52 18 176 9 225 -16z"/>
<path d="M2295 1603 c-129 -14 -203 -79 -221 -192 -14 -90 39 -161 198 -264
118 -76 159 -130 144 -190 -24 -95 -142 -122 -274 -62 -30 14 -58 25 -63 25
-5 0 -9 -25 -9 -55 l0 -54 49 -15 c126 -37 249 -25 321 32 43 35 80 104 80
152 0 98 -43 152 -198 253 -141 92 -170 135 -135 203 44 90 112 102 281 49 21
-7 22 -5 22 43 0 51 0 51 -37 61 -49 12 -120 18 -158 14z"/>
<path d="M1430 1196 l0 -406 210 0 210 0 0 50 0 50 -160 0 -160 0 -2 353 -3
352 -47 3 -48 3 0 -405z"/>
<path d="M2780 1371 c-140 -43 -218 -187 -196 -364 5 -34 19 -75 39 -108 27
-45 43 -59 99 -88 57 -29 76 -34 135 -33 44 0 88 8 126 22 l57 21 0 45 c0 24
-2 44 -5 44 -3 0 -24 -9 -47 -21 -44 -23 -140 -36 -181 -25 -58 14 -126 103
-127 164 l0 22 200 0 200 0 0 58 c0 167 -93 274 -235 271 -22 0 -51 -4 -65 -8z
m141 -108 c33 -28 59 -78 59 -113 0 -19 -6 -20 -146 -20 l-146 0 6 31 c22 112
148 168 227 102z"/>
<path d="M4237 1366 c-46 -17 -99 -57 -127 -95 -36 -51 -50 -108 -50 -205 0
-100 23 -169 71 -213 79 -71 199 -91 319 -53 l70 23 0 48 0 48 -51 -26 c-66
-32 -162 -42 -205 -20 -44 23 -81 67 -99 116 -8 24 -15 47 -15 52 0 5 90 9
200 9 l200 0 0 73 c-1 160 -74 247 -215 254 -35 2 -76 -3 -98 -11z m167 -105
c21 -20 56 -96 56 -123 0 -4 -67 -8 -150 -8 -113 0 -150 3 -150 13 1 28 39 95
71 121 30 25 39 28 91 24 43 -3 64 -10 82 -27z"/>
<path d="M4895 1375 c-5 -2 -23 -6 -40 -10 -16 -4 -46 -25 -67 -47 l-38 -41 0
41 0 42 -50 0 -50 0 2 -282 3 -283 46 -3 46 -3 5 183 c6 206 13 234 73 287 35
31 42 33 87 27 l49 -7 -3 48 c-3 43 -6 48 -28 50 -14 1 -29 0 -35 -2z"/>
<path d="M5002 1368 c-7 -7 -12 -17 -12 -22 0 -6 5 -3 11 7 12 21 62 23 79 3
14 -17 10 -63 -5 -56 -5 3 -10 16 -10 30 0 18 -6 26 -22 28 -21 3 -23 -1 -22
-35 0 -25 3 -32 7 -20 7 16 8 16 24 -2 12 -14 13 -21 5 -25 -9 -3 -9 -5 0 -5
19 -1 43 29 43 53 0 45 -67 75 -98 44z m48 -28 c0 -5 -4 -10 -10 -10 -5 0 -10
5 -10 10 0 6 5 10 10 10 6 0 10 -4 10 -10z"/>
<path d="M3364 1360 c-12 -4 -35 -25 -53 -46 l-31 -39 0 43 0 42 -50 0 -50 0
0 -285 0 -285 49 0 49 0 4 188 c3 172 5 190 26 230 31 59 75 85 130 77 l42 -6
0 45 0 46 -47 -1 c-27 0 -57 -4 -69 -9z"/>
<path d="M3520 1349 c0 -11 160 -444 191 -517 19 -43 19 -43 66 -40 l47 3 54
135 c30 74 80 202 112 283 l59 148 -52 -3 -52 -3 -38 -105 c-21 -58 -58 -159
-84 -224 l-46 -119 -47 130 c-26 72 -62 174 -80 227 l-32 96 -49 0 c-28 0 -49
-5 -49 -11z"/>
<path d="M4990 1301 c0 -10 29 -36 34 -30 1 2 -6 12 -16 22 -10 9 -18 13 -18
8z"/>
</g>
</svg>
