<?xml version="1.0" standalone="no"?>
<!DOCTYPE svg PUBLIC "-//W3C//DTD SVG 20010904//EN"
 "http://www.w3.org/TR/2001/REC-SVG-20010904/DTD/svg10.dtd">
<svg version="1.0" xmlns="http://www.w3.org/2000/svg"
 width="1024.000000pt" height="1024.000000pt" viewBox="0 0 1024.000000 1024.000000"
 preserveAspectRatio="xMidYMid meet">

<g transform="translate(0.000000,1024.000000) scale(0.100000,-0.100000)"
fill="#000000" stroke="none">
<path d="M5170 8451 c-25 -13 -39 -30 -50 -59 -19 -54 -6 -89 43 -121 l37 -24
2 -206 c2 -267 5 -248 -42 -296 l-40 -41 0 -119 c0 -103 5 -138 14 -93 2 7 7
22 12 33 8 17 10 16 15 -15 4 -22 7 4 8 66 l1 102 45 36 45 37 0 248 0 247 30
22 c43 32 57 88 35 136 -30 63 -91 82 -155 47z m90 -51 c24 -24 25 -48 4 -78
-21 -30 -60 -26 -86 9 -16 21 -17 29 -7 52 18 39 59 47 89 17z"/>
<path d="M4683 8390 c-37 -22 -54 -50 -55 -90 -1 -45 21 -87 57 -108 l32 -20
5 -306 c5 -336 2 -321 70 -360 28 -17 31 -17 19 -2 -10 12 -11 20 -3 28 13 13
40 -5 52 -37 7 -16 9 -16 9 -3 1 9 -19 33 -44 54 l-45 36 0 299 c0 291 1 299
21 309 11 6 29 26 39 43 65 106 -51 222 -157 157z m99 -57 c25 -23 23 -68 -4
-87 -30 -21 -54 -20 -78 4 -55 55 24 136 82 83z m12 -796 c-18 -10 -40 6 -30
22 5 7 13 7 26 -1 17 -11 18 -14 4 -21z"/>
<path d="M4770 7550 c0 -5 5 -10 11 -10 5 0 7 5 4 10 -3 6 -8 10 -11 10 -2 0
-4 -4 -4 -10z"/>
<path d="M3985 8196 c-44 -22 -114 -52 -155 -65 -41 -14 -78 -29 -82 -35 -24
-36 9 -210 61 -321 21 -44 57 -103 80 -132 49 -61 167 -153 197 -153 28 0 140
95 190 161 86 114 137 251 138 373 l1 79 -106 37 c-58 20 -131 51 -162 68 -31
18 -62 31 -69 31 -7 -1 -49 -20 -93 -43z m186 -55 c46 -21 110 -47 142 -57
l59 -18 -7 -54 c-19 -152 -74 -277 -169 -378 -35 -38 -75 -75 -89 -83 -23 -12
-29 -11 -69 17 -137 94 -230 265 -240 442 l-3 54 85 31 c47 17 108 43 135 58
28 14 55 26 61 27 6 0 49 -18 95 -39z"/>
<path d="M4035 8113 c-16 -9 -68 -32 -115 -49 -96 -37 -93 -30 -64 -149 24
-100 71 -184 145 -257 37 -38 74 -68 82 -68 25 0 108 90 150 161 41 69 73 161
82 236 l6 48 -108 43 c-136 54 -142 56 -178 35z m211 -182 c-7 -10 -160 -143
-192 -166 -10 -7 -29 5 -73 49 -54 53 -58 61 -49 82 14 31 24 30 77 -6 l44
-30 35 32 c20 17 57 44 81 60 45 28 46 28 64 9 11 -10 16 -24 13 -30z m-46
-116 c0 -8 -4 -15 -9 -15 -13 0 -22 16 -14 24 11 11 23 6 23 -9z m-90 -84 c0
-5 -7 -11 -15 -15 -15 -5 -20 5 -8 17 9 10 23 9 23 -2z"/>
<path d="M5455 8175 c-38 -37 -35 -102 5 -140 29 -28 30 -31 30 -126 l0 -98
-85 -77 c-83 -77 -105 -114 -66 -114 18 0 123 86 184 151 26 28 27 34 27 133
0 103 1 105 30 134 24 24 30 39 30 72 0 56 -34 90 -90 90 -30 0 -47 -6 -65
-25z m105 -34 c16 -31 12 -49 -15 -67 -23 -15 -27 -15 -50 0 -30 20 -32 39 -5
66 25 25 56 26 70 1z"/>
<path d="M4950 8068 c-56 -30 -63 -97 -15 -142 25 -23 25 -24 27 -227 1 -126
4 -183 8 -149 6 46 7 49 10 20 1 -19 4 -27 7 -17 10 39 22 13 26 -55 1 -40 4
36 5 169 l2 242 25 25 c30 30 34 84 8 115 -23 27 -71 35 -103 19z"/>
<path d="M3520 7922 c-1 -34 -37 -87 -77 -112 l-43 -28 29 -12 c40 -16 78 -58
95 -105 11 -31 15 -34 15 -17 1 37 31 78 73 102 42 23 50 35 17 25 -14 -5 -19
-3 -15 3 4 6 -3 16 -15 22 -11 7 -34 40 -50 73 -15 34 -28 56 -29 49z m80
-157 c0 -12 -19 -12 -23 0 -4 9 -1 12 9 8 7 -3 14 -7 14 -8z"/>
<path d="M4502 7857 c-29 -31 -28 -72 3 -101 l25 -23 2 -229 2 -229 6 155 c3
85 7 130 10 100 l3 -55 7 55 6 55 5 -50 c3 -29 6 2 7 76 2 120 3 127 27 149
49 46 20 120 -48 120 -22 0 -41 -8 -55 -23z m58 -47 c0 -11 -4 -20 -9 -20 -14
0 -23 18 -16 30 10 17 25 11 25 -10z"/>
<path d="M5830 7746 c-75 -17 -156 -44 -210 -71 -305 -153 -437 -525 -290
-816 38 -75 91 -133 183 -201 38 -29 65 -54 58 -56 -6 -2 -48 1 -93 7 -101 14
-216 14 -330 1 -87 -10 -87 -10 -139 21 -85 50 -156 64 -309 63 -116 -1 -148
-5 -225 -28 -115 -34 -225 -97 -283 -161 -114 -127 -89 -176 73 -141 44 10
107 24 140 32 81 18 254 17 354 -1 195 -37 419 -140 586 -268 219 -169 365
-383 461 -674 39 -118 92 -340 83 -346 -2 -2 -62 -25 -134 -51 -184 -68 -296
-124 -403 -201 -52 -37 -96 -64 -99 -61 -3 3 -6 22 -7 43 -1 36 0 37 47 51 30
8 47 19 47 29 0 8 -20 65 -44 126 -66 164 -120 363 -76 275 51 -100 138 -231
158 -239 41 -16 58 -10 78 26 l18 35 -55 57 c-62 63 -93 117 -157 268 -23 55
-56 114 -72 132 -17 18 -30 34 -30 37 0 3 17 14 38 25 49 26 91 89 107 164 3
17 10 25 16 21 15 -9 5 -79 -21 -138 -31 -73 -27 -91 32 -146 55 -51 68 -54
68 -15 0 23 1 24 35 9 41 -17 77 -18 92 -3 8 8 2 25 -21 62 -29 48 -31 55 -28
136 4 118 -4 165 -33 193 -32 33 -89 50 -123 37 -23 -9 -30 -6 -64 35 -87 102
-215 114 -308 30 -42 -38 -80 -106 -80 -143 0 -12 -7 -29 -15 -37 -19 -19 -19
-74 -1 -119 14 -32 41 -51 99 -69 33 -10 20 -44 -26 -64 -49 -22 -63 -48 -98
-179 -20 -78 -72 -183 -94 -190 -9 -3 -105 145 -105 161 0 3 7 6 15 6 21 0 19
24 -10 107 -44 132 -63 158 -141 193 -55 24 -62 38 -27 51 42 15 92 68 103
109 15 55 12 84 -16 154 -24 58 -25 66 -11 80 21 22 11 50 -33 90 -73 66 -198
67 -289 2 -124 -87 -164 -160 -141 -260 16 -72 55 -122 122 -154 31 -15 57
-33 57 -39 1 -7 -17 -22 -38 -33 -45 -23 -65 -48 -114 -147 -20 -39 -41 -74
-47 -78 -5 -3 -14 -15 -20 -25 -8 -15 -6 -23 10 -38 17 -16 18 -23 9 -58 -15
-53 -56 -132 -90 -174 -31 -37 -35 -59 -19 -91 15 -26 108 -28 116 -1 9 28 84
214 99 247 21 43 18 19 -10 -101 -31 -131 -31 -132 1 -146 25 -12 25 -14 19
-68 -4 -30 -10 -88 -14 -128 l-6 -72 -90 71 c-49 39 -116 97 -148 128 -67 64
-220 239 -230 261 -4 8 -38 58 -77 110 -38 52 -77 109 -86 126 l-17 32 59 81
c32 45 67 96 78 114 10 17 43 71 72 118 36 58 51 92 48 106 -3 11 0 24 6 28 9
5 10 1 5 -16 -5 -18 -4 -21 4 -13 7 6 13 21 14 33 1 11 6 21 12 21 5 0 -3 12
-18 25 -31 28 -24 34 11 9 12 -8 22 -12 22 -7 0 4 -17 20 -38 35 -20 14 -66
52 -101 84 -73 67 -81 52 70 145 109 67 111 71 55 146 -32 44 -305 317 -483
484 -57 53 -103 102 -103 108 0 15 -41 4 -52 -13 -6 -8 -8 -7 -8 1 0 18 39 35
182 82 304 98 614 159 1001 196 37 4 65 11 61 16 -3 5 -11 6 -17 3 -8 -5 -8
-3 1 7 17 18 15 40 -3 33 -8 -4 -15 -1 -15 5 0 6 5 11 10 11 18 0 11 20 -7 21
-10 1 0 5 22 8 23 3 44 2 48 -4 5 -6 7 -4 4 5 -2 9 -13 14 -28 13 -477 -47
-936 -142 -1326 -275 l-121 -41 -5 -36 c-6 -46 9 -370 23 -493 96 -858 488
-1508 1192 -1978 235 -157 489 -277 814 -384 l111 -37 119 36 c247 75 424 146
630 254 112 59 306 181 318 199 7 11 -12 11 -31 -1 -7 -5 -17 -5 -23 -2 -5 3
-10 -1 -10 -10 0 -9 -4 -13 -10 -10 -5 3 -10 1 -10 -4 0 -6 -6 -10 -12 -9 -7
2 -12 -4 -10 -12 3 -11 -1 -11 -16 3 -19 17 -19 17 -17 -6 2 -17 -2 -24 -14
-23 -9 0 -15 -4 -14 -11 2 -7 -7 -18 -20 -24 -12 -7 -24 -15 -27 -18 -3 -4
-17 -12 -31 -18 -20 -9 -26 -8 -26 3 0 7 3 11 7 9 4 -3 16 5 26 17 12 13 13
18 4 13 -8 -5 -24 -10 -35 -12 -18 -2 -18 -1 3 9 12 6 22 15 22 20 0 5 5 6 12
2 7 -4 8 -3 4 4 -5 9 -15 7 -34 -6 -14 -9 -23 -12 -19 -6 3 6 -4 16 -17 22
-20 9 -38 3 -122 -40 -106 -55 -333 -150 -347 -145 -4 1 42 22 104 46 366 145
726 396 968 676 47 55 99 116 114 135 l29 35 -28 -40 c-78 -113 -219 -265
-362 -388 -58 -49 -91 -85 -88 -93 3 -8 1 -14 -4 -14 -5 0 -8 -9 -7 -19 0 -11
5 -17 9 -15 5 3 6 9 3 14 -3 4 2 13 9 19 10 9 16 9 21 1 5 -8 12 -7 23 3 10 8
27 13 40 12 12 -1 22 2 22 7 0 4 -10 8 -22 8 -21 0 -21 0 -2 14 12 9 21 11 25
4 4 -6 18 -10 33 -10 16 0 23 -5 19 -12 -9 -16 -46 -41 -56 -38 -4 1 -6 -4 -5
-10 2 -7 -5 -12 -15 -12 -10 1 -16 -1 -13 -4 4 -3 -4 -17 -16 -30 l-23 -25 23
15 c60 41 227 186 298 260 493 515 748 1181 757 1976 l2 184 -225 69 c-124 37
-230 68 -236 69 -7 0 -13 -36 -17 -102 -5 -117 -31 -208 -76 -280 l-30 -47
112 -74 c118 -78 203 -149 238 -199 19 -27 21 -37 14 -116 l-7 -87 -30 59
c-62 123 -140 202 -256 260 -71 36 -154 56 -267 64 l-96 7 92 60 c111 73 180
146 210 223 33 81 33 232 1 313 -100 251 -370 411 -691 408 -64 -1 -141 -7
-171 -13z m348 -52 l72 -15 -30 -30 c-37 -37 -50 -81 -57 -191 -6 -84 -6 -87
-26 -76 -36 19 -185 21 -282 4 -98 -17 -338 -90 -446 -135 l-69 -29 0 29 c0
42 38 137 81 200 97 144 276 237 494 258 102 9 159 6 263 -15z m174 -58 c29
-13 73 -38 97 -56 l44 -32 -40 -18 c-32 -14 -46 -29 -68 -74 -25 -51 -27 -64
-23 -131 7 -99 55 -200 130 -272 30 -27 60 -52 68 -55 12 -4 10 -10 -10 -27
-63 -55 -155 -114 -262 -171 -246 -129 -465 -183 -637 -158 -108 15 -115 23
-35 38 97 18 205 55 305 104 292 144 364 266 293 497 -22 71 -25 98 -21 174 4
93 19 138 60 183 26 28 34 28 99 -2z m234 -197 l29 -32 -31 18 c-40 23 -61 15
-79 -30 -19 -44 -19 -69 0 -133 15 -51 64 -113 110 -138 37 -21 7 -26 -33 -5
-75 38 -122 127 -122 230 0 112 63 157 126 90z m-599 -193 c22 -19 28 -32 28
-66 0 -34 -6 -47 -28 -66 -60 -51 -137 -14 -137 66 0 80 77 117 137 66z m-432
-141 c47 -46 30 -121 -32 -139 -35 -11 -87 42 -87 87 0 72 70 102 119 52z
m365 -155 c12 -9 8 -17 -27 -48 -62 -57 -148 -77 -222 -51 -20 7 -31 17 -29
27 2 13 15 15 65 13 63 -2 149 25 174 55 14 17 19 17 39 4z m509 -339 c-111
-96 -145 -304 -80 -493 l20 -58 -42 -34 c-62 -50 -171 -118 -265 -165 l-83
-42 -62 57 c-33 31 -139 119 -234 196 -109 87 -173 145 -173 157 0 39 128 198
182 227 37 19 38 18 38 -16 0 -19 11 -42 29 -62 28 -31 34 -33 94 -33 97 0
222 65 346 179 51 47 96 86 99 87 4 0 39 9 77 19 100 27 106 25 54 -19z
m-1706 -5 c-4 -53 -85 -112 -163 -118 -44 -3 -45 -2 -48 27 -3 40 30 93 71
110 18 8 56 14 87 12 54 -2 55 -3 53 -31z m2032 -1 c51 -25 124 -99 168 -172
57 -95 57 -93 -29 -137 -91 -47 -213 -158 -280 -256 -26 -39 -50 -70 -53 -70
-11 0 -111 187 -131 245 -13 38 -20 84 -20 135 0 66 4 86 30 137 62 125 195
174 315 118z m-1861 1 c18 -7 42 -25 53 -40 39 -50 0 -107 -72 -105 -45 1
-106 22 -118 40 -24 38 29 119 78 119 14 0 40 -6 59 -14z m-408 -22 c-4 -9
-11 -36 -17 -61 -13 -48 -38 -68 -74 -59 -49 12 -39 82 17 116 41 25 83 27 74
4z m959 -44 c39 -6 94 -17 123 -26 l54 -15 -60 -58 c-60 -59 -122 -140 -122
-160 0 -35 -90 19 -152 91 -29 34 -75 85 -101 114 l-49 53 29 4 c56 8 209 6
278 -3z m-1128 -56 c-8 -49 -24 -66 -48 -53 -37 19 -11 89 34 89 17 0 19 -5
14 -36z m2090 -682 c54 -169 57 -152 -34 -205 -119 -70 -171 -91 -189 -76 -16
13 -167 230 -162 233 2 1 35 14 73 29 39 15 115 51 170 81 55 29 102 51 104
49 3 -2 20 -51 38 -111z m-2942 -152 c14 -27 23 -50 20 -50 -2 0 -16 23 -30
50 -14 28 -23 50 -20 50 2 0 16 -22 30 -50z m3218 -245 c-3 -9 -8 -14 -10 -11
-3 3 -2 9 2 15 9 16 15 13 8 -4z m-2118 -89 c11 -18 39 -62 63 -96 23 -35 42
-71 42 -81 0 -44 72 -66 102 -31 9 9 35 56 58 104 23 48 49 93 58 100 14 11
15 10 8 -7 -4 -11 -14 -54 -22 -95 -40 -208 -56 -286 -60 -302 -4 -12 7 -21
41 -33 40 -16 45 -21 45 -50 0 -18 3 -52 6 -77 l6 -45 -63 -12 c-35 -7 -109
-24 -164 -37 -54 -13 -103 -20 -107 -16 -4 4 -11 42 -14 83 -6 72 -5 76 15 82
33 8 29 75 -23 377 -20 112 -26 170 -18 170 4 0 16 -15 27 -34z m-205 -362 c0
-8 16 -54 36 -102 38 -91 66 -182 56 -182 -3 0 -32 17 -64 38 -46 29 -58 41
-53 57 2 11 5 64 5 118 0 63 4 96 10 92 6 -3 10 -13 10 -21z m1984 -25 c-3 -5
-10 -7 -15 -3 -5 3 -7 10 -3 15 3 5 10 7 15 3 5 -3 7 -10 3 -15z m-23 -81
c-24 -18 -55 -14 -47 8 3 7 2 15 -2 17 -4 2 -2 3 4 1 6 -1 17 2 25 6 8 5 19 4
27 -3 12 -9 10 -14 -7 -29z m-1249 -3 c30 -12 36 -20 42 -56 8 -49 4 -54 -46
-63 l-38 -7 0 71 c0 38 2 70 4 70 2 0 19 -7 38 -15z m763 -303 c-3 -3 -11 0
-18 7 -9 10 -8 11 6 5 10 -3 15 -9 12 -12z m0 -21 c-3 -5 -1 -12 4 -15 5 -4
12 -2 16 4 3 5 12 10 18 10 17 -1 -25 -24 -45 -25 -20 -2 -24 21 -5 28 18 8
19 8 12 -2z m-40 -49 c-11 -2 -23 -9 -27 -16 -5 -7 -8 -6 -8 5 0 22 8 28 33
21 21 -6 21 -6 2 -10z m-620 -114 c-16 -6 -33 -16 -37 -22 -5 -7 -8 -5 -8 6 0
9 10 18 23 21 41 8 52 5 22 -5z"/>
<path d="M3697 7666 c-4 -10 -3 -15 1 -13 4 2 23 -14 42 -37 19 -22 30 -37 23
-33 -6 4 -14 3 -18 -3 -4 -6 -11 -7 -17 -4 -6 4 -8 3 -5 -3 4 -6 1 -16 -6 -24
-7 -8 -11 -12 -10 -10 2 2 -2 10 -8 17 -6 8 -9 20 -6 27 3 8 1 20 -3 27 -7 11
-15 11 -43 -5 l-35 -19 31 -16 c17 -9 38 -31 48 -50 l18 -33 7 27 c3 14 20 37
38 51 l31 24 -32 28 c-17 15 -35 36 -41 47 -8 16 -10 17 -15 2z m-16 -69 c-1
-4 -1 -14 -1 -23 0 -8 -5 -12 -10 -9 -6 4 -8 11 -5 16 4 5 1 9 -5 9 -6 0 -8 5
-5 11 7 11 27 8 26 -4z"/>
<path d="M5245 7510 c-11 -4 -33 -22 -50 -40 l-30 -31 28 10 c35 14 40 14 32
1 -12 -19 6 -10 30 16 13 14 21 32 18 40 -3 8 -6 14 -7 13 0 0 -10 -4 -21 -9z
m-15 -24 c0 -2 -8 -10 -17 -17 -16 -13 -17 -12 -4 4 13 16 21 21 21 13z"/>
<path d="M4583 7447 c0 -8 6 -14 14 -14 9 0 10 4 2 14 -6 7 -12 13 -14 13 -1
0 -2 -6 -2 -13z"/>
<path d="M4822 7420 c0 -14 2 -19 5 -12 2 6 2 18 0 25 -3 6 -5 1 -5 -13z"/>
<path d="M6076 4775 c-27 -19 -57 -41 -65 -50 -15 -15 -14 -15 2 -9 10 4 17 1
17 -7 0 -7 -8 -22 -17 -33 -17 -20 -17 -20 1 -6 10 8 22 25 27 38 6 15 13 21
21 16 8 -5 7 0 -2 11 -14 17 -13 18 3 12 10 -4 16 -3 13 2 -3 5 2 15 11 22 14
12 16 12 11 -2 -4 -9 -1 -16 7 -16 7 0 12 7 10 16 -1 9 2 22 8 29 14 18 7 15
-47 -23z"/>
<path d="M6152 4737 c-8 -10 -6 -13 9 -13 20 0 25 11 10 20 -5 3 -13 0 -19 -7z"/>
<path d="M6076 4704 c-5 -14 -4 -15 9 -4 17 14 19 20 6 20 -5 0 -12 -7 -15
-16z"/>
<path d="M5935 4680 c-3 -6 -22 -18 -42 -29 -26 -13 -31 -19 -21 -24 9 -3 30
8 52 29 20 19 32 34 27 34 -6 0 -13 -5 -16 -10z"/>
<path d="M6005 4640 c3 -5 8 -10 11 -10 2 0 4 5 4 10 0 6 -5 10 -11 10 -5 0
-7 -4 -4 -10z"/>
<path d="M5900 4620 c0 -5 5 -10 10 -10 6 0 10 5 10 10 0 6 -4 10 -10 10 -5 0
-10 -4 -10 -10z"/>
<path d="M1870 3993 c-14 -3 -57 -20 -97 -38 -170 -78 -263 -234 -263 -440 0
-207 82 -355 240 -435 103 -52 239 -64 370 -34 102 23 108 30 102 140 l-4 91
-60 -24 c-73 -30 -183 -34 -243 -8 -85 35 -137 109 -155 221 -31 189 62 334
225 351 60 6 145 -10 194 -39 18 -10 35 -18 36 -16 2 2 4 43 6 93 l4 90 -60
24 c-48 19 -81 25 -165 27 -58 1 -116 0 -130 -3z"/>
<path d="M4350 3984 c-115 -31 -187 -97 -210 -195 -15 -61 -7 -115 25 -179 32
-63 76 -98 218 -172 65 -33 125 -71 133 -84 23 -34 14 -83 -18 -107 -54 -40
-197 -32 -304 17 l-54 25 0 -94 c0 -87 2 -96 23 -109 86 -55 322 -70 431 -27
116 46 176 139 176 271 0 135 -56 206 -230 294 -132 66 -160 89 -160 127 0 71
125 93 257 44 37 -14 72 -27 77 -28 5 -1 11 35 13 80 3 77 2 82 -22 101 -59
46 -246 65 -355 36z"/>
<path d="M5644 3969 c-98 -37 -155 -117 -162 -226 l-4 -62 -42 -3 -41 -3 0
-72 0 -73 43 0 42 0 0 -240 0 -240 105 0 105 0 0 240 0 240 70 0 70 0 0 59 c0
33 3 66 6 75 5 14 -5 16 -71 16 l-77 0 4 57 c4 43 10 61 28 75 24 20 83 24
124 8 l26 -10 0 84 0 84 -31 6 c-58 11 -144 5 -195 -15z"/>
<path d="M2378 3957 l-78 -10 0 -449 0 -448 100 0 100 0 0 200 c0 162 3 207
15 231 28 53 101 66 134 23 20 -25 21 -39 21 -240 l0 -214 101 0 101 0 -4 248
c-4 204 -8 254 -22 287 -35 80 -88 115 -178 115 -52 0 -129 -27 -142 -49 -20
-32 -26 2 -26 154 0 190 16 170 -122 152z"/>
<path d="M3330 3964 c-14 -3 -44 -7 -67 -10 l-43 -5 0 -450 0 -449 100 0 100
0 0 460 0 460 -32 -1 c-18 -1 -44 -3 -58 -5z"/>
<path d="M3965 3963 c-16 -2 -47 -9 -67 -14 l-38 -10 0 -131 0 -130 -32 6
c-85 17 -109 17 -160 2 -75 -21 -137 -78 -174 -158 -27 -58 -29 -71 -28 -178
0 -126 14 -172 70 -239 64 -76 180 -93 279 -41 31 17 59 30 60 30 2 0 5 -10 7
-22 3 -22 8 -23 91 -26 l87 -3 0 461 0 460 -32 -1 c-18 -1 -46 -4 -63 -6z
m-124 -423 c17 -10 19 -23 19 -155 l0 -145 -26 -17 c-57 -37 -122 -14 -150 54
-16 38 -18 133 -4 185 20 70 101 109 161 78z"/>
<path d="M2994 3945 c-43 -18 -64 -51 -64 -101 0 -56 7 -72 41 -89 55 -29 145
-11 169 34 13 25 13 72 0 105 -18 48 -92 74 -146 51z"/>
<path d="M7981 3804 c0 -11 3 -14 6 -6 3 7 2 16 -1 19 -3 4 -6 -2 -5 -13z"/>
<path d="M3008 3687 l-68 -9 0 -314 0 -314 100 0 100 0 0 325 0 325 -32 -1
c-18 -1 -63 -6 -100 -12z"/>
<path d="M4978 3685 c-76 -19 -138 -51 -138 -72 0 -22 22 -96 31 -107 5 -5 29
0 57 12 121 52 231 32 232 -44 0 -19 -7 -21 -95 -27 -103 -7 -155 -24 -199
-65 -78 -73 -87 -208 -18 -286 61 -68 215 -74 291 -11 36 31 39 31 43 -2 l3
-28 91 -3 90 -3 -4 223 c-2 123 -8 239 -13 259 -25 99 -111 159 -237 165 -47
2 -99 -2 -134 -11z m192 -391 c0 -83 -79 -131 -145 -88 -47 30 -23 105 37 118
103 23 108 21 108 -30z"/>
<path d="M6041 3689 c-225 -69 -298 -408 -122 -572 26 -24 69 -52 96 -63 100
-38 355 -19 393 29 5 7 7 43 4 80 -4 58 -7 67 -21 61 -72 -31 -105 -38 -173
-38 -63 -1 -82 3 -105 20 -28 21 -73 79 -73 95 0 5 84 10 188 11 l187 3 -1 85
c-1 97 -13 142 -54 199 -44 60 -116 94 -210 97 -41 2 -90 -1 -109 -7z m171
-179 c10 -19 18 -45 18 -57 0 -22 -3 -23 -95 -23 l-95 0 0 28 c0 91 132 131
172 52z"/>
<path d="M7593 3693 c9 -2 23 -2 30 0 6 3 -1 5 -18 5 -16 0 -22 -2 -12 -5z"/>
<path d="M7785 3620 c10 -11 20 -20 23 -20 3 0 -3 9 -13 20 -10 11 -20 20 -23
20 -3 0 3 -9 13 -20z"/>
<path d="M7568 3563 c7 -3 16 -2 19 1 4 3 -2 6 -13 5 -11 0 -14 -3 -6 -6z"/>
<path d="M6678 3458 c-3 -91 -4 -99 -14 -68 -6 19 -17 35 -25 35 -8 0 -19 3
-24 7 -6 4 -17 3 -25 -3 -20 -12 -33 -11 -25 1 3 6 1 10 -5 10 -6 0 -9 4 -6 9
4 5 -3 7 -14 4 -14 -4 -21 -15 -22 -37 -1 -17 -4 1 -8 39 -4 44 -7 -18 -8
-167 l-2 -238 95 0 95 0 0 255 c0 257 -7 343 -12 153z"/>
<path d="M7310 3529 c-7 -11 -10 -23 -7 -25 2 -2 9 7 15 21 14 30 7 33 -8 4z"/>
<path d="M7209 3448 c-1 -65 -4 -84 -9 -63 -7 28 -8 29 -10 5 -1 -23 -2 -23
-10 -5 -6 13 -9 15 -9 5 -1 -9 -4 -11 -9 -5 -4 6 -32 10 -62 10 -30 0 -66 5
-79 12 -20 10 -28 10 -40 0 -12 -10 -13 -9 -6 3 6 12 5 12 -5 3 -7 -6 -19 -9
-26 -6 -8 3 -21 0 -28 -6 -10 -8 -16 -9 -21 -1 -9 15 -28 1 -21 -16 3 -8 1
-14 -4 -14 -6 0 -10 -5 -10 -11 0 -5 4 -7 10 -4 6 4 7 -1 3 -11 -5 -14 -8 -13
-19 7 -7 13 -10 28 -7 33 4 5 2 6 -4 3 -5 -3 -17 7 -27 24 -9 16 -15 29 -12
29 3 0 -1 8 -10 18 -8 9 -24 28 -35 42 -27 33 9 -30 146 -260 l110 -185 103
-3 102 -3 0 246 c0 135 -2 245 -5 245 -3 0 -6 -42 -6 -92z"/>
<path d="M7982 3354 c-1 -114 2 -194 9 -215 15 -44 46 -78 88 -96 44 -19 172
-18 239 2 57 17 58 19 46 107 l-6 45 -40 -15 c-29 -11 -48 -13 -76 -6 -49 12
-60 46 -63 194 l-3 115 -6 -80 c-3 -44 -7 -67 -8 -52 -2 24 -5 27 -23 22 -15
-5 -19 -4 -14 5 6 9 3 9 -14 1 -24 -13 -45 -6 -34 12 3 7 -3 4 -14 -6 -16 -14
-22 -15 -26 -5 -4 10 -9 9 -20 -4 -8 -10 -17 -18 -20 -18 -4 0 -8 39 -10 88
-1 48 -4 6 -5 -94z"/>
<path d="M7857 3448 c3 -41 1 -58 -5 -50 -8 11 -10 11 -15 -1 -5 -14 -51 -16
-64 -3 -3 3 -11 -1 -17 -9 -12 -17 -72 -32 -62 -16 4 5 2 13 -4 16 -6 4 -9 1
-8 -7 2 -9 -11 -14 -39 -16 -26 -2 -43 1 -43 7 0 6 -5 11 -11 11 -5 0 -7 -5
-3 -11 4 -8 0 -8 -15 0 -16 9 -21 9 -21 -1 0 -8 -3 -9 -8 -3 -23 32 -40 36
-72 20 -17 -9 -28 -20 -25 -25 3 -6 -1 -7 -9 -4 -8 3 -13 11 -10 17 2 7 -6 12
-21 12 -14 0 -25 -4 -25 -10 0 -5 -20 -10 -45 -10 l-45 -1 -1 51 -1 50 -9 -50
c-25 -146 52 -302 174 -356 78 -34 240 -39 336 -10 39 12 73 26 77 33 7 10 6
129 0 136 -2 1 -29 -7 -61 -18 -38 -13 -84 -20 -132 -20 -97 0 -147 24 -173
83 -10 22 -16 45 -14 49 3 4 90 8 193 8 l189 0 6 33 c5 29 -8 144 -18 154 -2
3 -2 -24 1 -59z"/>
<path d="M7682 3465 c0 -16 2 -22 5 -12 2 9 2 23 0 30 -3 6 -5 -1 -5 -18z"/>
<path d="M7471 3444 c0 -11 3 -14 6 -6 3 7 2 16 -1 19 -3 4 -6 -2 -5 -13z"/>
<path d="M7483 3422 c-6 -4 23 -6 65 -4 114 4 128 9 32 10 -47 1 -90 -2 -97
-6z"/>
<path d="M3585 2876 c-50 -21 -92 -78 -105 -140 -28 -135 30 -252 147 -296
125 -47 534 -65 1443 -65 949 1 1250 20 1357 86 74 46 107 122 101 232 -4 93
-30 143 -88 174 l-43 23 -1391 0 c-1127 -1 -1397 -3 -1421 -14z m455 -136 c0
-28 -2 -30 -40 -30 l-40 0 0 -105 0 -105 -40 0 -40 0 0 105 0 105 -40 0 c-38
0 -40 2 -40 30 l0 30 120 0 120 0 0 -30z m270 0 l0 -30 -60 0 c-53 0 -60 -2
-60 -20 0 -17 7 -20 50 -20 49 0 50 -1 50 -30 0 -29 -1 -30 -50 -30 -47 0 -50
-2 -50 -25 0 -24 2 -25 65 -25 l65 0 0 -30 0 -30 -105 0 -105 0 0 135 0 135
100 0 100 0 0 -30z m296 -100 c24 -69 44 -128 44 -132 0 -5 -18 -8 -39 -8 -33
0 -40 4 -45 25 -6 22 -11 25 -55 25 -44 0 -49 -3 -55 -25 -5 -21 -12 -25 -46
-25 -22 0 -40 1 -40 3 0 2 15 41 33 88 19 46 42 106 51 132 l18 48 45 -3 45
-3 44 -125z m231 75 c15 -30 30 -55 33 -55 3 0 18 25 35 55 28 53 30 55 72 55
l43 0 0 -135 0 -135 -41 0 -41 0 4 80 c2 44 0 80 -4 80 -3 0 -14 -20 -25 -45
-16 -39 -22 -45 -48 -45 -26 0 -33 7 -52 48 l-21 47 -1 -82 -1 -83 -35 0 -35
0 0 135 0 135 45 0 c45 0 45 0 72 -55z m673 25 c0 -28 -2 -30 -40 -30 l-40 0
0 -105 0 -105 -40 0 -40 0 0 105 0 105 -40 0 c-38 0 -40 2 -40 30 l0 30 120 0
120 0 0 -30z m141 -27 c0 -58 0 -58 17 -33 50 73 73 90 119 90 l45 0 -51 -57
c-28 -31 -51 -61 -51 -65 0 -5 25 -39 56 -76 l55 -67 -46 -3 c-41 -3 -48 0
-73 30 -15 18 -37 44 -49 58 l-22 25 -1 -57 0 -58 -40 0 -40 0 0 135 0 135 40
0 40 0 1 -57z m469 27 c0 -28 -2 -30 -40 -30 l-40 0 0 -105 0 -105 -40 0 -40
0 0 105 0 105 -40 0 c-38 0 -40 2 -40 30 l0 30 120 0 120 0 0 -30z"/>
<path d="M4502 2670 c-26 -67 -26 -70 7 -70 34 0 36 7 16 60 l-13 35 -10 -25z"/>
<path d="M3030 2770 c-434 -25 -652 -40 -750 -51 -47 -5 -112 -9 -144 -9 -33
0 -57 -2 -55 -5 3 -2 182 -11 399 -20 217 -8 507 -20 644 -25 137 -6 250 -9
251 -8 1 2 5 33 9 71 l7 67 -28 -1 c-15 -1 -165 -10 -333 -19z"/>
<path d="M6624 2760 c3 -18 6 -50 6 -72 l0 -40 83 6 c45 3 294 13 552 21 259
8 517 18 575 22 l105 7 -94 8 c-52 4 -311 21 -575 37 -265 17 -521 33 -570 37
l-89 6 7 -32z"/>
</g>
</svg>
